<mxfile host="app.diagrams.net" modified="2023-12-27T09:49:29.229Z" agent="Mozilla/5.0 (Macintosh; Intel Mac OS X 10_15_7) AppleWebKit/537.36 (KHTML, like Gecko) Chrome/120.0.0.0 Safari/537.36" version="21.7.0" etag="devlbcxCMkEZNQyUB5G6" type="github">
  <diagram name="第 1 页" id="DmzHCMlXL03L6lN9v64w">
    <mxGraphModel>
      <root>
        <mxCell id="0" />
        <mxCell id="1" parent="0" />
      </root>
    </mxGraphModel>
  </diagram>
</mxfile>
